<?xml version="1.0" encoding="UTF-8"?>
<svg version="1.1" xmlns="http://www.w3.org/2000/svg" width="311" height="276">
<path d="M0 0 C0.99 0 1.98 0 3 0 C8.23671837 11.0345137 8.87730237 23.3680929 5 35 C6.32 35.33 7.64 35.66 9 36 C8.69230355 49.53864385 -3.77796822 62.27989956 -13.015625 71.1953125 C-22.23994925 79.58436329 -32.56410355 84.54179859 -44.5 87.9375 C-45.27778809 88.16123291 -46.05557617 88.38496582 -46.85693359 88.61547852 C-50.63584443 89.62805504 -53.26414442 90.16823404 -57 89 C-57.33 89.66 -57.66 90.32 -58 91 C-78.12298964 95.4112643 -96.53235626 92.67249531 -115 84 C-115 79.11436562 -113.31251256 77.57692663 -110.125 74.25 C-109.62323242 73.71922852 -109.12146484 73.18845703 -108.60449219 72.64160156 C-99.83222866 63.52662831 -90.21420496 57.62205476 -79 52 C-100.81796738 62.27881133 -117.9192817 74.782604 -130 96 C-130.48984375 96.85078125 -130.9796875 97.7015625 -131.484375 98.578125 C-139.22450856 113.00726288 -142.39635519 128.5613641 -142.3125 144.8125 C-142.30686035 145.95960449 -142.3012207 147.10670898 -142.29541016 148.28857422 C-141.92478625 174.1551875 -130.83756791 197.46768523 -113.25 216.1875 C-91.86943497 236.49689444 -65.43746854 243.66314292 -36.546875 243.23828125 C-13.11552866 242.56454707 7.4253315 232.05532914 25 217 C25.59167969 216.505 26.18335938 216.01 26.79296875 215.5 C42.84628171 200.85754828 54.1185789 175.90561844 55.12451172 154.3293457 C55.92295994 123.96599627 48.79072125 97.85543287 27.44921875 75.3046875 C23.75124335 71.54498565 20.09832991 68.03398265 15.875 64.875 C13.93817745 63.26327059 13.12397286 62.43775243 12.43359375 60 C12.24362294 56.6663187 12.79013239 54.34977935 14.5 51.5 C17.27973527 49.83215884 19.47876764 49.1843194 22.73828125 49.37109375 C27.7332593 50.76002547 31.28912238 54.54238703 35 58 C35.88945312 58.80953125 36.77890625 59.6190625 37.6953125 60.453125 C58.3997123 80.1547476 72.56456514 107.86676636 73.3984375 136.71875 C73.40625785 139.31249998 73.39841314 141.90634391 73.375 144.5 C73.38660156 145.78519531 73.39820313 147.07039062 73.41015625 148.39453125 C73.31647237 179.46635227 58.8712644 207.33163368 37.8125 229.5625 C24.85765491 242.13565988 8.13403095 251.52256804 -9 257 C-10.20527344 257.39316406 -11.41054687 257.78632813 -12.65234375 258.19140625 C-42.73454489 266.88911823 -74.72650459 260.59722052 -101.8828125 246.50390625 C-127.75153855 231.82278037 -146.98334345 207.23721625 -156 179 C-156.39316406 177.783125 -156.78632813 176.56625 -157.19140625 175.3125 C-162.85707739 155.54758018 -162.42561948 130.50180401 -156 111 C-155.78569336 110.32130859 -155.57138672 109.64261719 -155.35058594 108.94335938 C-149.60287965 91.08949443 -139.79882062 75.39946032 -126.3125 62.375 C-121.9450286 58.14861265 -118.78735987 53.90974712 -115.68359375 48.70703125 C-111.63799811 42.20216401 -106.61533604 36.20445779 -101 31 C-100.37867188 30.38511719 -99.75734375 29.77023438 -99.1171875 29.13671875 C-86.84244084 17.45591144 -73.90181611 14.91289586 -57.5625 14.125 C-47.38236216 13.56528918 -37.33068505 12.71916923 -27.25 11.125 C-26.2710376 10.97562988 -25.2920752 10.82625977 -24.28344727 10.67236328 C-15.01858459 9.1107708 -6.37866038 7.17599293 0 0 Z M4 35 C5 37 5 37 5 37 Z M-73 49 C-69 50 -69 50 -69 50 Z " fill="#408D53" transform="translate(199,4)"/>
<path d="M0 0 C1.49853516 -0.03673828 1.49853516 -0.03673828 3.02734375 -0.07421875 C10.30820815 -0.10277116 16.57222187 1.0108951 22.37207031 5.68115234 C25.43580512 8.89145136 26.60305981 12.0478923 26.8828125 16.359375 C26.47739968 22.51211074 23.17550205 26.42793061 18.75 30.375 C19.67232422 31.17164063 19.67232422 31.17164063 20.61328125 31.984375 C25.92442347 37.92664015 27.14081947 47.60794821 27.75 55.375 C25.31065775 55.51001894 22.87875896 55.60903897 20.4375 55.6875 C19.74720703 55.72939453 19.05691406 55.77128906 18.34570312 55.81445312 C16.32421875 55.86328125 16.32421875 55.86328125 12.75 55.375 C9.84734514 52.08693039 9.10571483 48.41128824 8.1875 44.1875 C7.35461551 39.80949631 7.35461551 39.80949631 4.75 36.375 C3.1 36.045 1.45 35.715 -0.25 35.375 C-0.25 41.975 -0.25 48.575 -0.25 55.375 C-2.704375 55.395625 -5.15875 55.41625 -7.6875 55.4375 C-8.8485022 55.45115601 -8.8485022 55.45115601 -10.03295898 55.46508789 C-11.77221717 55.47224913 -13.51145304 55.42524702 -15.25 55.375 C-16.25 54.375 -16.25 54.375 -16.37025452 52.28062439 C-16.3669236 50.89829369 -16.3669236 50.89829369 -16.36352539 49.48803711 C-16.36344986 48.44703354 -16.36337433 47.40602997 -16.36329651 46.33348083 C-16.35813522 45.2012056 -16.35297394 44.06893036 -16.34765625 42.90234375 C-16.3462413 41.74956436 -16.34482635 40.59678497 -16.34336853 39.40907288 C-16.33775005 35.71018936 -16.32519442 32.01136536 -16.3125 28.3125 C-16.30748738 25.81184983 -16.30292406 23.31119871 -16.29882812 20.81054688 C-16.28777462 14.66534412 -16.27101852 8.52017631 -16.25 2.375 C-10.69253845 0.04462685 -5.97848784 0.00759655 0 0 Z M-0.25 12.375 C-0.25 16.005 -0.25 19.635 -0.25 23.375 C4.79878218 23.7931556 4.79878218 23.7931556 9.25 21.6875 C10.99908602 19.46711769 10.99908602 19.46711769 10.6875 16.75 C9.88344454 14.05210239 9.88344454 14.05210239 6.75 12.375 C4.41800612 12.29594936 2.08167378 12.28701231 -0.25 12.375 Z " fill="#002495" transform="translate(107.25,119.625)"/>
<path d="M0 0 C5.754375 -0.020625 11.50875 -0.04125 17.4375 -0.0625 C19.25564209 -0.071604 21.07378418 -0.08070801 22.94702148 -0.09008789 C24.38004482 -0.09300711 25.81306898 -0.09555566 27.24609375 -0.09765625 C27.99669067 -0.10277222 28.7472876 -0.10788818 29.52062988 -0.11315918 C31.34747601 -0.11346992 33.17421683 -0.06231113 35 0 C36 1 36 1 36.09765625 3.94140625 C36.06510417 7.29427083 36.03255208 10.64713542 36 14 C26.1 14.495 26.1 14.495 16 15 C16 16.65 16 18.3 16 20 C22.27 20.33 28.54 20.66 35 21 C35.09765625 30.27734375 35.09765625 30.27734375 35 33 C34 34 34 34 32.23413086 34.11352539 C31.48526611 34.10828857 30.73640137 34.10305176 29.96484375 34.09765625 C29.15595703 34.09443359 28.34707031 34.09121094 27.51367188 34.08789062 C26.66353516 34.07951172 25.81339844 34.07113281 24.9375 34.0625 C24.08349609 34.05798828 23.22949219 34.05347656 22.34960938 34.04882812 C20.23304337 34.03700373 18.11651315 34.01906769 16 34 C16 36.31 16 38.62 16 41 C22.93 41.33 29.86 41.66 37 42 C37 46.29 37 50.58 37 55 C24.79 55 12.58 55 0 55 C0 36.85 0 18.7 0 0 Z " fill="#002495" transform="translate(179,120)"/>
<path d="M0 0 C16.39170844 2.82793889 33.3550827 4.00595799 49.5859375 -0.34375 C52.0625 -1 52.0625 -1 55.0625 -1 C55.0625 1.97 55.0625 4.94 55.0625 8 C31.13127878 18.62463701 9.82324454 18.14430279 -15.72265625 13.97265625 C-31.45230709 11.42186943 -48.62643364 9.64768242 -62.94921875 17.9765625 C-64.9375 19 -64.9375 19 -67.9375 19 C-68.71683712 13.97760526 -68.71683712 13.97760526 -67.9375 11 C-65.29652153 8.35303291 -62.22629898 6.73503568 -58.9375 5 C-58.31488281 4.61972656 -57.69226563 4.23945313 -57.05078125 3.84765625 C-40.49748214 -5.66779768 -17.93117673 -3.09725226 0 0 Z " fill="#002495" transform="translate(160.9375,186)"/>
<path d="M0 0 C-0.47939368 4.71403788 -0.96834048 8.66579301 -3 13 C-3.7425 12.835 -4.485 12.67 -5.25 12.5 C-10.50409401 11.79945413 -15.70751749 11.92292501 -21 12 C-19.97101845 14.94437492 -19.31535019 15.84620614 -16.4609375 17.23828125 C-15.44257813 17.59277344 -14.42421875 17.94726562 -13.375 18.3125 C-7.60018575 20.55710289 -3.07888874 23.28413411 1 28 C2.9336187 33.8008561 2.99359019 39.8981746 0.375 45.4375 C-4.7780391 50.99735798 -10.1992431 53.61295171 -17.76171875 54.22265625 C-24.68993101 54.42668811 -30.51329606 53.41098731 -37 51 C-36.85795259 49.41632253 -36.71119847 47.83306682 -36.5625 46.25 C-36.44068359 44.92742187 -36.44068359 44.92742187 -36.31640625 43.578125 C-36.03761535 41.30649548 -35.61209423 39.20148177 -35 37 C-34.14277344 37.22816406 -33.28554687 37.45632812 -32.40234375 37.69140625 C-23.73110353 39.91532689 -23.73110353 39.91532689 -15 39 C-15 37.68 -15 36.36 -15 35 C-16.39412109 34.47212891 -16.39412109 34.47212891 -17.81640625 33.93359375 C-24.97483268 31.11565816 -31.40302886 28.52422364 -36 22 C-37.63968743 17.08093772 -37.55903081 12.74697129 -36 7.875 C-32.51363062 2.86334402 -28.15433823 -0.15365284 -22.5 -2.375 C-15.02479583 -3.70985789 -6.92499695 -3.46249848 0 0 Z " fill="#002495" transform="translate(173,122)"/>
<path d="M0 0 C1.32 0.33 2.64 0.66 4 1 C3.69230355 14.53864385 -8.77796822 27.27989956 -18.015625 36.1953125 C-27.26049019 44.60304422 -37.59595768 49.5521181 -49.5625 52.9375 C-50.34866699 53.16123291 -51.13483398 53.38496582 -51.94482422 53.61547852 C-57.61518262 55.12827246 -57.61518262 55.12827246 -61 54 C-58.31394187 51.83538882 -55.93116263 50.46094705 -52.6875 49.3125 C-41.97460371 45.16046031 -31.60411829 39.66638456 -23 32 C-22.25363281 31.35804687 -21.50726563 30.71609375 -20.73828125 30.0546875 C-14.04507321 23.89557246 -10.22789331 16.94880155 -6 9 C-4.68156594 6.65777973 -3.34215613 4.32877421 -2 2 C-1.34 2 -0.68 2 0 2 C0 1.34 0 0.68 0 0 Z " fill="#C0C1BE" transform="translate(204,39)"/>
<path d="M0 0 C-4.34018075 11.45022559 -10.16949677 21.46281768 -19 30 C-19.71671875 30.70253906 -20.4334375 31.40507813 -21.171875 32.12890625 C-26.26242689 36.865416 -26.26242689 36.865416 -29.18359375 37.3984375 C-33.45777971 38.31137042 -36.99985635 40.47561291 -40.8125 42.5625 C-41.60076172 42.98724609 -42.38902344 43.41199219 -43.20117188 43.84960938 C-45.1373378 44.89396554 -47.07005367 45.9442077 -49 47 C-49 46.01 -49 45.02 -49 44 C-42.33333333 40.66666667 -35.66666667 37.33333333 -29 34 C-29 33.01 -29 32.02 -29 31 C-26.875 29.5625 -26.875 29.5625 -24 28 C-16.74187054 23.55624727 -13.47883267 18.36706797 -9.9375 10.875 C-9.26491812 9.45296973 -8.5867139 8.03358221 -7.90234375 6.6171875 C-7.60835693 5.99440918 -7.31437012 5.37163086 -7.01147461 4.72998047 C-5.05367119 1.38144197 -3.9879589 0 0 0 Z " fill="#1B9B38" transform="translate(203,39)"/>
<path d="M0 0 C1.85625 0.6496875 1.85625 0.6496875 3.75 1.3125 C15.2634065 5.08474965 25.94928853 6.58593527 38 7 C38 6.34 38 5.68 38 5 C40.97 5.33 43.94 5.66 47 6 C47 6.66 47 7.32 47 8 C41.17943751 10.52458132 35.53507738 10.29658199 29.3125 10.25 C28.26771484 10.25773437 27.22292969 10.26546875 26.14648438 10.2734375 C25.14552734 10.27085938 24.14457031 10.26828125 23.11328125 10.265625 C22.20360596 10.26336914 21.29393066 10.26111328 20.35668945 10.25878906 C18 10 18 10 15 8 C11.66431173 6.71246682 8.30237347 5.51444497 4.93359375 4.31640625 C2 3 2 3 0 0 Z " fill="#8FCB6D" transform="translate(97,74)"/>
<path d="M0 0 C-1.98 0.99 -1.98 0.99 -4 2 C-3.34 2.66 -2.68 3.32 -2 4 C-6.91597107 8.91597107 -19.52983643 8.14592667 -26.25 8.25 C-32.32592004 8.16695781 -38.08309979 7.35243433 -44 6 C-44 5.34 -44 4.68 -44 4 C-32.12 4 -20.24 4 -8 4 C-8.495 2.515 -8.495 2.515 -9 1 C-5.57367167 -0.61798838 -3.61944899 -1.34053666 0 0 Z " fill="#2AA045" transform="translate(145,89)"/>
<path d="M0 0 C0.66 0.33 1.32 0.66 2 1 C0.03168221 4.02277375 -1.90837461 6.88743166 -4.1875 9.6875 C-6.80803526 13.03094153 -7.1221606 15.57091844 -7.0625 19.6875 C-7.05347656 20.49574219 -7.04445313 21.30398437 -7.03515625 22.13671875 C-7.02355469 22.75160156 -7.01195313 23.36648437 -7 24 C-8.65614657 24.38218767 -10.32457024 24.71395102 -12 25 C-13.53123685 23.46876315 -13.24307107 22.06787176 -13.3125 19.9375 C-13.21588278 13.17429432 -10.54827162 8.39173711 -5.9375 3.5625 C-3 1 -3 1 0 0 Z " fill="#53B42C" transform="translate(125,33)"/>
<path d="M0 0 C0.66 0.33 1.32 0.66 2 1 C1.3503125 1.61875 1.3503125 1.61875 0.6875 2.25 C-2.48666587 5.54172757 -4.42540281 7.72483755 -4.375 12.4375 C-4.25125 13.613125 -4.1275 14.78875 -4 16 C2.55276707 18.28584898 9.10401439 18.60594368 16 19 C12.74139485 22.25860515 8.72977858 21.75466274 4.28125 22.03515625 C-0.05271317 21.98872093 -2.34082572 21.27681955 -6 19 C-8 16 -8 16 -7.875 12.6875 C-6.62578963 7.4229706 -4.00491747 3.60442573 0 0 Z " fill="#7EC655" transform="translate(146,34)"/>
<path d="M0 0 C1.8253125 0.7115625 1.8253125 0.7115625 3.6875 1.4375 C15.79134122 5.40965842 29.40672817 4.11300045 42 4 C41 6 41 6 37.5625 7.1875 C25.24495091 9.67469741 11.09868837 7.7484238 0 2 C0 1.34 0 0.68 0 0 Z " fill="#7FC652" transform="translate(115,59)"/>
<path d="M0 0 C-0.97453125 1.12148438 -0.97453125 1.12148438 -1.96875 2.265625 C-2.8040625 3.25046875 -3.639375 4.2353125 -4.5 5.25 C-5.75296875 6.71179687 -5.75296875 6.71179687 -7.03125 8.203125 C-9.38373771 10.97510035 -9.38373771 10.97510035 -9 15 C-3.66164461 16.92471317 1.34979382 18.39891424 7 19 C7 19.33 7 19.66 7 20 C0.19796625 20.37634203 -4.75690073 19.77471079 -11 17 C-11.7230444 10.13107822 -11.7230444 10.13107822 -9.6640625 6.91015625 C-8.16989578 5.19502121 -6.64681923 3.56839927 -5 2 C-10.18088992 5.64062535 -12.42359388 9.17036994 -13.6875 15.375 C-13.790625 16.24125 -13.89375 17.1075 -14 18 C-14.33 18 -14.66 18 -15 18 C-15.58761346 10.80173507 -13.48711096 6.95344426 -9 1.625 C-5.72151386 -1.03876999 -4.00173672 -1.33391224 0 0 Z " fill="#4DB228" transform="translate(152,33)"/>
<path d="M0 0 C5.94 2.31 11.88 4.62 18 7 C18 7.66 18 8.32 18 9 C12.63904723 7.41078475 7.29156027 5.81027062 2 4 C10.33198003 7.92157305 10.33198003 7.92157305 19 11 C13.50442538 13.03783269 8.13972732 10.09015578 3 8 C0.80277551 6.79598584 -1.01736156 5.54205212 -3 4 C-2.01 2.68 -1.02 1.36 0 0 Z " fill="#61B632" transform="translate(96,71)"/>
<path d="M0 0 C-0.66 1.65 -1.32 3.3 -2 5 C-2.66 4.67 -3.32 4.34 -4 4 C-4.74443359 5.59328125 -4.74443359 5.59328125 -5.50390625 7.21875 C-14.59891074 26.29954171 -14.59891074 26.29954171 -22.9375 30 C-23.948125 30.33 -24.95875 30.66 -26 31 C-26.33 30.34 -26.66 29.68 -27 29 C-26.48050781 28.78085938 -25.96101562 28.56171875 -25.42578125 28.3359375 C-24.72839844 28.01882812 -24.03101563 27.70171875 -23.3125 27.375 C-22.62800781 27.07335937 -21.94351563 26.77171875 -21.23828125 26.4609375 C-15.45141748 22.68382223 -12.70461156 16.87994772 -9.875 10.8125 C-9.21147645 9.39963037 -8.54238683 7.98935849 -7.8671875 6.58203125 C-7.57956543 5.96561768 -7.29194336 5.3492041 -6.99560547 4.71411133 C-5.05180399 1.36751246 -3.97593268 0 0 0 Z " fill="#69BC2D" transform="translate(203,39)"/>
<path d="M0 0 C2.64 0 5.28 0 8 0 C5.3590874 4.01418715 3.60630893 5.17964236 -0.96508789 6.35693359 C-4.86252977 7.58859069 -8.3656738 9.66615787 -11.9375 11.625 C-13.10635742 12.25535156 -13.10635742 12.25535156 -14.29882812 12.8984375 C-16.20252112 13.92619814 -18.10173281 14.96225213 -20 16 C-20 15.01 -20 14.02 -20 13 C-13.33333333 9.66666667 -6.66666667 6.33333333 0 3 C0 2.01 0 1.02 0 0 Z " fill="#64B836" transform="translate(174,70)"/>
<path d="M0 0 C0 0.66 0 1.32 0 2 C-2.20716463 3.27289905 -4.41567485 4.5433605 -6.625 5.8125 C-7.24246094 6.16892578 -7.85992187 6.52535156 -8.49609375 6.89257812 C-10.32383752 7.94112587 -12.16061149 8.97204746 -14 10 C-15.05960938 10.60199219 -16.11921875 11.20398438 -17.2109375 11.82421875 C-20.26859661 13.1132319 -20.97969401 12.94874282 -24 12 C-20.37871557 9.99321599 -16.75238357 7.9957352 -13.125 6 C-12.09246094 5.42765625 -11.05992187 4.8553125 -9.99609375 4.265625 C-9.00996094 3.72421875 -8.02382812 3.1828125 -7.0078125 2.625 C-5.64100342 1.87089844 -5.64100342 1.87089844 -4.24658203 1.1015625 C-2 0 -2 0 0 0 Z " fill="#229D3B" transform="translate(175,75)"/>
<path d="M0 0 C0.66 0.33 1.32 0.66 2 1 C1.65066406 1.55945312 1.30132812 2.11890625 0.94140625 2.6953125 C-2.77291268 9.24008977 -3.60845474 14.69760305 -3.76171875 22.19140625 C-3.84035156 23.11824219 -3.91898437 24.04507813 -4 25 C-4.66 25.33 -5.32 25.66 -6 26 C-6.05416741 23.27056463 -6.09375225 20.54221436 -6.125 17.8125 C-6.14175781 17.04357422 -6.15851563 16.27464844 -6.17578125 15.48242188 C-6.21197683 11.26563734 -6.19622197 7.74521297 -4 4 C-3.01 3.67 -2.02 3.34 -1 3 C-0.67 2.01 -0.34 1.02 0 0 Z " fill="#95D06F" transform="translate(100,44)"/>
<path d="M0 0 C1.8253125 0.4640625 1.8253125 0.4640625 3.6875 0.9375 C9.73076221 2.29868206 15.82945928 2.63758803 22 3 C19.36465495 5.63534505 18.04840007 5.32850126 14.375 5.375 C8.50482915 5.30427505 4.96138281 4.05315865 0 1 C0 0.67 0 0.34 0 0 Z " fill="#9CD375" transform="translate(140,50)"/>
<path d="M0 0 C1 3 1 3 0 6 C-0.068991 8.06145107 -0.08467727 10.12501401 -0.0625 12.1875 C-0.05347656 13.27417969 -0.04445313 14.36085938 -0.03515625 15.48046875 C-0.02355469 16.31191406 -0.01195313 17.14335938 0 18 C-0.99 18.33 -1.98 18.66 -3 19 C-3.55353075 5.18223235 -3.55353075 5.18223235 0 0 Z " fill="#5FB527" transform="translate(99,49)"/>
<path d="M0 0 C0 0.99 0 1.98 0 3 C-4.0271824 5.20536179 -7.43545749 6.45660208 -12 7 C-11.34 6.01 -10.68 5.02 -10 4 C-10 3.34 -10 2.68 -10 2 C-6.7 1.34 -3.4 0.68 0 0 Z " fill="#6FBF36" transform="translate(170,49)"/>
<path d="M0 0 C0 3.36407953 -1.04915964 5.70016296 -2.265625 8.79296875 C-3.39032145 12.17304052 -3.68382289 15.45881636 -4 19 C-4.66 19 -5.32 19 -6 19 C-6.55428226 12.34861284 -5.69455091 7.62272894 -2 2 C-1.34 1.34 -0.68 0.68 0 0 Z " fill="#A1D682" transform="translate(119,39)"/>
<path d="M0 0 C-1.98 0.99 -1.98 0.99 -4 2 C-3.34 2.66 -2.68 3.32 -2 4 C-4 6 -4 6 -6.625 6.125 C-7.40875 6.08375 -8.1925 6.0425 -9 6 C-9 4.33333333 -9 2.66666667 -9 1 C-5.57367167 -0.61798838 -3.61944899 -1.34053666 0 0 Z " fill="#70BA57" transform="translate(145,89)"/>
<path d="M0 0 C-3.66291938 2.47785723 -6.6109185 3.48964169 -11 4 C-11.33 3.34 -11.66 2.68 -12 2 C-10.75579353 1.4654744 -9.50429064 0.94791389 -8.25 0.4375 C-7.55390625 0.14746094 -6.8578125 -0.14257812 -6.140625 -0.44140625 C-3.69987216 -1.07831803 -2.3596345 -0.80248831 0 0 Z " fill="#C1CBC8" transform="translate(155,90)"/>
<path d="M0 0 C5.28 1.32 10.56 2.64 16 4 C15.34 4.66 14.68 5.32 14 6 C12.046875 5.828125 12.046875 5.828125 9.75 5.25 C8.95207031 5.05148438 8.15414062 4.85296875 7.33203125 4.6484375 C4.51668221 3.86561013 1.75029115 2.987284 -1 2 C-0.67 1.34 -0.34 0.68 0 0 Z " fill="#61B828" transform="translate(117,58)"/>
<path d="M0 0 C4.95 1.65 9.9 3.3 15 5 C15 5.33 15 5.66 15 6 C9.33557626 5.63495936 4.99296295 4.9445679 0 2 C0 1.34 0 0.68 0 0 Z " fill="#D3EBC3" transform="translate(115,59)"/>
<path d="M0 0 C0.66 0.33 1.32 0.66 2 1 C1.3125 2.9375 1.3125 2.9375 0 5 C-2.625 5.75 -2.625 5.75 -5 6 C-5.33 5.01 -5.66 4.02 -6 3 C-4.03533587 1.93224776 -2.03144641 0.93446535 0 0 Z " fill="#B0C0A4" transform="translate(159,85)"/>
<path d="M0 0 C0 0.66 0 1.32 0 2 C-3.50776784 3.60355101 -6.14354879 4.22036864 -10 4 C-9 2 -9 2 -6.6875 0.875 C-4 0 -4 0 0 0 Z " fill="#159742" transform="translate(150,88)"/>
<path d="M0 0 C3 2 3 2 4 5 C1.13275314 4.42655063 0.1385485 4.1385485 -2 2 C-1.34 1.34 -0.68 0.68 0 0 Z " fill="#6DBC41" transform="translate(95,72)"/>
<path d="M0 0 C-0.66 1.65 -1.32 3.3 -2 5 C-2.66 4.67 -3.32 4.34 -4 4 C-4.66 4.99 -5.32 5.98 -6 7 C-6.33 6.34 -6.66 5.68 -7 5 C-5.42883768 1.01166488 -4.40389355 0 0 0 Z " fill="#4EB230" transform="translate(203,39)"/>
</svg>
